<svg width="20" height="20" viewBox="0 0 20 20" fill="none" xmlns="http://www.w3.org/2000/svg">
<path fill-rule="evenodd" clip-rule="evenodd" d="M10 20C15.5228 20 20 15.5228 20 10C20 4.47715 15.5228 0 10 0C4.47715 0 0 4.47715 0 10C0 15.5228 4.47715 20 10 20ZM14.0208 14.0208C13.4551 14.5865 12.8423 14.2565 12.6066 14.0208L10.0139 11.4281L7.42115 14.0208C7.18545 14.2565 6.57262 14.5865 6.00694 14.0208C5.44125 13.4551 5.77124 12.8423 6.00694 12.6066L8.59966 10.0139L6.00694 7.42115C5.77124 7.18545 5.44125 6.57262 6.00694 6.00694C6.57262 5.44125 7.18545 5.77123 7.42115 6.00694L10.0139 8.59966L12.6066 6.00694C12.8423 5.77123 13.4551 5.44125 14.0208 6.00694C14.5865 6.57262 14.2565 7.18545 14.0208 7.42115L11.4281 10.0139L14.0208 12.6066C14.2565 12.8423 14.5865 13.4551 14.0208 14.0208Z" fill="url(#paint0_linear_4_997)"/>
<defs>
<linearGradient id="paint0_linear_4_997" x1="10" y1="0" x2="10" y2="20" gradientUnits="userSpaceOnUse">
<stop stop-color="#FF786A"/>
<stop offset="1" stop-color="#FF3923"/>
</linearGradient>
</defs>
</svg>
