<svg width="25" height="25" viewBox="0 0 25 25" fill="none" xmlns="http://www.w3.org/2000/svg">
<rect width="25" height="25" rx="5" fill="url(#paint0_linear_1085_295)"/>
<rect x="6" y="6" width="13" height="13" rx="6.5" fill="white"/>
<path fill-rule="evenodd" clip-rule="evenodd" d="M23 12.5C23 18.299 18.299 23 12.5 23C6.70101 23 2 18.299 2 12.5C2 6.70101 6.70101 2 12.5 2C18.299 2 23 6.70101 23 12.5ZM12.5 18.45C11.66 18.45 11.45 17.75 11.45 17.4V13.55H7.6C7.25 13.55 6.55 13.34 6.55 12.5C6.55 11.66 7.25 11.45 7.6 11.45H11.45V7.6C11.45 7.25 11.66 6.55 12.5 6.55C13.34 6.55 13.55 7.25 13.55 7.6V11.45H17.4C17.75 11.45 18.45 11.66 18.45 12.5C18.45 13.34 17.75 13.55 17.4 13.55H13.55V17.4C13.55 17.75 13.34 18.45 12.5 18.45Z" fill="url(#paint1_linear_1085_295)"/>
<defs>
<linearGradient id="paint0_linear_1085_295" x1="12.5" y1="0" x2="12.5" y2="25" gradientUnits="userSpaceOnUse">
<stop stop-color="#50B3FF"/>
<stop offset="1" stop-color="#32A5FF"/>
</linearGradient>
<linearGradient id="paint1_linear_1085_295" x1="12.5" y1="2" x2="12.5" y2="23" gradientUnits="userSpaceOnUse">
<stop stop-color="#4CB2FF"/>
<stop offset="1" stop-color="#34A6FF"/>
</linearGradient>
</defs>
</svg>
