<svg width="25" height="25" viewBox="0 0 25 25" fill="none" xmlns="http://www.w3.org/2000/svg">
<rect width="25" height="25" rx="5" fill="url(#paint0_linear_786_305)"/>
<path d="M17.8629 15.233C19.1006 14.1948 19.8889 12.6283 19.8889 10.8758C19.8889 9.12323 19.1006 7.55673 17.8629 6.51852M15.9767 8.19586C16.6265 8.85003 17.0286 9.75522 17.0286 10.7553C17.0286 11.766 16.618 12.6797 15.9561 13.3354M5.11108 19.1852C5.11108 18.0612 5.77847 16.1745 8.448 16.1745H12.2616C14.9312 16.1745 15.5985 18.0612 15.5985 19.1852M13.6917 10.5145C13.6917 12.3767 12.1977 13.8864 10.3548 13.8864C8.51188 13.8864 7.01789 12.3767 7.01789 10.5145C7.01789 8.6522 8.51188 7.14253 10.3548 7.14253C12.1977 7.14253 13.6917 8.6522 13.6917 10.5145Z" stroke="white" stroke-linecap="round"/>
<defs>
<linearGradient id="paint0_linear_786_305" x1="12.5" y1="0" x2="12.5" y2="25" gradientUnits="userSpaceOnUse">
<stop stop-color="#E693FB"/>
<stop offset="1" stop-color="#CF75E6"/>
</linearGradient>
</defs>
</svg>
