<svg width="25" height="25" viewBox="0 0 25 25" fill="none" xmlns="http://www.w3.org/2000/svg">
<rect width="25" height="25" rx="5" fill="url(#paint0_linear_923_285)"/>
<path d="M9.00514 14.9728L8.40386 18.4631C8.40386 18.8241 8.40386 19.1852 9.00514 19.1852C9.21974 19.1852 11.8913 17.6206 12.1318 17.5002C12.709 17.2114 13.3343 17.3799 13.5748 17.5002C13.8154 17.6206 16.4869 19.1852 16.7015 19.1852C17.3028 19.1852 17.3028 18.8241 17.3028 18.4631L16.7015 14.9728C16.7015 14.8524 16.5812 14.4914 16.942 14.1303L19.5876 11.4825C19.8682 11.1616 20.1889 10.6401 19.3471 10.5197L15.4957 9.91793C15.0147 9.79758 14.7742 9.31616 14.6539 9.07545L13.3311 6.18696C12.9463 5.51298 12.5294 5.90613 12.3691 6.18696L10.9261 9.07545C10.8058 9.31616 10.6855 9.79758 10.2045 9.91793L6.35638 10.5197C5.51459 10.6401 5.83527 11.1616 6.11587 11.4825L8.76148 14.1303C9.12225 14.4914 9.00514 14.8524 9.00514 14.9728Z" stroke="white"/>
<defs>
<linearGradient id="paint0_linear_923_285" x1="12.5" y1="0" x2="12.5" y2="25" gradientUnits="userSpaceOnUse">
<stop stop-color="#E788FF"/>
<stop offset="1" stop-color="#CF75E6"/>
</linearGradient>
</defs>
</svg>
