<svg width="25" height="25" viewBox="0 0 25 25" fill="none" xmlns="http://www.w3.org/2000/svg">
<rect width="25" height="25" rx="5" fill="url(#paint0_linear_786_292)"/>
<path d="M18.4814 10.2716V14.7284C18.4814 15.5103 18.0165 17.0741 16.1572 17.0741H9.53335M6.74436 7.22223C6.43447 7.22223 5.8147 7.40988 5.8147 8.1605V13.9074C5.8147 14.658 6.43447 14.8457 6.74436 14.8457H15.3437C15.6536 14.8457 16.2734 14.658 16.2734 13.9074V8.1605C16.2734 7.40988 15.6536 7.22223 15.3437 7.22223H6.74436ZM12.671 10.9753C12.671 11.8822 11.9426 12.6173 11.0441 12.6173C10.1455 12.6173 9.41714 11.8822 9.41714 10.9753C9.41714 10.0685 10.1455 9.33334 11.0441 9.33334C11.9426 9.33334 12.671 10.0685 12.671 10.9753Z" stroke="white" stroke-linecap="round"/>
<defs>
<linearGradient id="paint0_linear_786_292" x1="12.5" y1="0" x2="12.5" y2="25" gradientUnits="userSpaceOnUse">
<stop stop-color="#62FA7B"/>
<stop offset="1" stop-color="#52E069"/>
</linearGradient>
</defs>
</svg>
