<svg width="25" height="25" viewBox="0 0 25 25" fill="none" xmlns="http://www.w3.org/2000/svg">
<rect width="25" height="25" rx="5" fill="url(#paint0_linear_786_317)"/>
<path d="M12.5 11.7611C12.5 11.9651 12.3424 12.1306 12.1481 12.1306C11.9538 12.1306 11.7963 11.9651 11.7963 11.7611C11.7963 11.5571 11.9538 11.3917 12.1481 11.3917C12.3424 11.3917 12.5 11.5571 12.5 11.7611Z" fill="white"/>
<path d="M15.6666 11.7611C15.6666 11.9651 15.5091 12.1306 15.3148 12.1306C15.1205 12.1306 14.9629 11.9651 14.9629 11.7611C14.9629 11.5571 15.1205 11.3917 15.3148 11.3917C15.5091 11.3917 15.6666 11.5571 15.6666 11.7611Z" fill="white"/>
<path d="M9.33331 11.7611C9.33331 11.9651 9.17578 12.1306 8.98145 12.1306C8.78713 12.1306 8.6296 11.9651 8.6296 11.7611C8.6296 11.5571 8.78713 11.3917 8.98145 11.3917C9.17578 11.3917 9.33331 11.5571 9.33331 11.7611Z" fill="white"/>
<path d="M10.21 18.18C9.08411 19.0667 6.63578 19.7657 5.81479 19.8889C6.04936 19.2731 7.10001 17.6722 6.87034 16.1944L6.8581 16.1467C5.7705 14.976 5.11108 13.4413 5.11108 11.7611C5.11108 8.08842 8.26167 5.11111 12.1481 5.11111C16.0346 5.11111 19.1852 8.08842 19.1852 11.7611C19.1852 15.4338 16.0346 18.4111 12.1481 18.4111M10.21 18.18C10.8277 18.3307 11.4775 18.4111 12.1481 18.4111M10.21 18.18L10.2343 18.1622C10.8428 18.3244 11.4848 18.4111 12.1481 18.4111M9.33331 11.7611C9.33331 11.9651 9.17578 12.1306 8.98145 12.1306C8.78713 12.1306 8.6296 11.9651 8.6296 11.7611C8.6296 11.5571 8.78713 11.3917 8.98145 11.3917C9.17578 11.3917 9.33331 11.5571 9.33331 11.7611ZM12.5 11.7611C12.5 11.9651 12.3424 12.1306 12.1481 12.1306C11.9538 12.1306 11.7963 11.9651 11.7963 11.7611C11.7963 11.5571 11.9538 11.3917 12.1481 11.3917C12.3424 11.3917 12.5 11.5571 12.5 11.7611ZM15.6666 11.7611C15.6666 11.9651 15.5091 12.1306 15.3148 12.1306C15.1205 12.1306 14.9629 11.9651 14.9629 11.7611C14.9629 11.5571 15.1205 11.3917 15.3148 11.3917C15.5091 11.3917 15.6666 11.5571 15.6666 11.7611Z" stroke="white" stroke-linecap="round" stroke-linejoin="round"/>
<defs>
<linearGradient id="paint0_linear_786_317" x1="12.5" y1="0" x2="12.5" y2="25" gradientUnits="userSpaceOnUse">
<stop stop-color="#4FB3FF"/>
<stop offset="1" stop-color="#35A7FF"/>
</linearGradient>
</defs>
</svg>
