<svg width="25" height="25" viewBox="0 0 25 25" fill="none" xmlns="http://www.w3.org/2000/svg">
<rect width="25" height="25" rx="5" fill="url(#paint0_linear_786_288)"/>
<path d="M10.5062 16.255H14.2593M9.33337 13.5902H15.6667M15.6667 10.9253H9.33337M11.2099 7.29144H7.80868C6.77658 7.29144 6.51855 8.17972 6.51855 8.62387C6.51855 11.4906 6.51855 17.4905 6.51855 18.5565C6.51855 19.6224 7.37864 19.8889 7.80868 19.8889H17.1914C17.6214 19.8889 18.4815 19.6224 18.4815 18.5565C18.4815 17.4905 18.4815 11.4906 18.4815 8.62387C18.4815 8.17972 18.2235 7.29144 17.1914 7.29144H13.7902M11.2099 7.29144V6.44354C11.2099 5.9994 11.4679 5.11111 12.5 5.11111C13.5321 5.11111 13.7902 5.9994 13.7902 6.44354V7.29144M11.2099 7.29144H13.7902" stroke="white" stroke-linecap="round"/>
<defs>
<linearGradient id="paint0_linear_786_288" x1="12.5" y1="0" x2="12.5" y2="25" gradientUnits="userSpaceOnUse">
<stop stop-color="#FF9F74"/>
<stop offset="1" stop-color="#FF834C"/>
</linearGradient>
</defs>
</svg>
