<svg width="20" height="20" viewBox="0 0 20 20" fill="none" xmlns="http://www.w3.org/2000/svg">
<g clip-path="url(#clip0_1010_298)">
<path d="M14.3186 8.89264C11.4346 11.8061 7.61974 15.6598 7.36882 15.9133C7.06555 16.2197 6.56854 16.2963 6.35793 16.2963H4.58837C4.29353 16.2963 3.70384 16.1176 3.70384 15.4027C3.70384 14.6879 3.70332 13.8709 3.70384 13.6156C3.70437 13.3603 3.80585 13.0016 4.08342 12.7221C4.18905 12.6157 8.15411 8.69866 11.1549 5.6967M14.3186 8.89264C14.9203 8.28483 15.4815 7.71794 15.9613 7.2332C16.214 6.9779 16.5678 6.31412 15.9613 5.70141C15.6665 5.40357 14.9252 4.6547 14.3186 4.04199C13.7121 3.42927 13.055 3.78669 12.8023 4.04199C12.3176 4.53163 11.7556 5.09583 11.1549 5.6967M14.3186 8.89264L11.1549 5.6967" stroke="#868686" stroke-width="1.5"/>
</g>
<defs>
<clipPath id="clip0_1010_298">
<rect width="20" height="20" fill="white"/>
</clipPath>
</defs>
</svg>
