<svg width="20" height="20" viewBox="0 0 20 20" fill="none" xmlns="http://www.w3.org/2000/svg">
<g clip-path="url(#clip0_1010_299)">
<rect width="20" height="20"/>
<path d="M2.58197 13.6913L2.57023 13.7021L2.55896 13.7134C2.42838 13.8442 2.36999 13.9961 2.34816 14.0555C2.31608 14.1426 2.29189 14.2377 2.27331 14.3368C2.23595 14.5358 2.21289 14.796 2.21289 15.1322V15.1358V15.1394V15.1429V15.1465V15.15V15.1536V15.1571V15.1606V15.1641V15.1676V15.1711V15.1746V15.1781V15.1816V15.1851V15.1885V15.192V15.1955V15.1989V15.2024V15.2058V15.2092V15.2127V15.2161V15.2195V15.2229V15.2263V15.2297V15.2331V15.2364V15.2398V15.2432V15.2465V15.2499V15.2532V15.2566V15.2599V15.2632V15.2665V15.2699V15.2732V15.2765V15.2798V15.283V15.2863V15.2896V15.2929V15.2961V15.2994V15.3026V15.3059V15.3091V15.3123V15.3156V15.3188V15.322V15.3252V15.3284V15.3316V15.3348V15.3379V15.3411V15.3443V15.3474V15.3506V15.3537V15.3569V15.36V15.3631V15.3662V15.3693V15.3725V15.3756V15.3786V15.3817V15.3848V15.3879V15.391V15.394V15.3971V15.4001V15.4032V15.4062V15.4092V15.4122V15.4153V15.4183V15.4213V15.4243V15.4273V15.4303V15.4332V15.4362V15.4392V15.4421V15.4451V15.448V15.451V15.4539V15.4568V15.4597V15.4627V15.4656V15.4685V15.4714V15.4743V15.4771V15.48V15.4829V15.4857V15.4886V15.4915V15.4943V15.4971V15.5V15.5028V15.5056V15.5084V15.5112V15.514V15.5168V15.5196V15.5224V15.5252V15.5279V15.5307V15.5335V15.5362V15.539V15.5417V15.5444V15.5471V15.5499V15.5526V15.5553V15.558V15.5607V15.5634V15.566V15.5687V15.5714V15.5741V15.5767V15.5794V15.582V15.5846V15.5873V15.5899V15.5925V15.5951V15.5977V15.6003V15.6029V15.6055V15.6081V15.6107V15.6132V15.6158V15.6183V15.6209V15.6234V15.626V15.6285V15.631V15.6336V15.6361V15.6386V15.6411V15.6436V15.6461V15.6485V15.651V15.6535V15.6559V15.6584V15.6608V15.6633V15.6657V15.6682V15.6706V15.673V15.6754V15.6778V15.6802V15.6826V15.685V15.6874V15.6898V15.6921V15.6945V15.6969V15.6992V15.7016V15.7039V15.7062V15.7086V15.7109V15.7132V15.7155V15.7178V15.7201V15.7224V15.7247V15.7269V15.7292V15.7315V15.7337V15.736V15.7382V15.7405V15.7427V15.745V15.7472V15.7494V15.7516V15.7538V15.756V15.7582V15.7604V15.7626V15.7647V15.7669V15.7691V15.7712V15.7734V15.7755V15.7777V15.7798V15.7819V15.784V15.7861V15.7882V15.7903V15.7924V15.7945V15.7966V15.7987V15.8008V15.8028V15.8049V15.8069V15.809V15.811V15.8131V15.8151V15.8171V15.8191V15.8211V15.8231V15.8251V15.8271V15.8291V15.8311V15.8331V15.835V15.837V15.839V15.8409V15.8429V15.8448V15.8467V15.8487V15.8506V15.8525V15.8544V15.8563V15.8582V15.8601V15.862V15.8638V15.8657V15.8676V15.8694V15.8713V15.8732V15.875V15.8768V15.8787V15.8805V15.8823V15.8841V15.8859V15.8877V15.8895V15.8913V15.8931V15.8949V15.8966V15.8984V15.9002V15.9019V15.9037V15.9054V15.9071V15.9089V15.9106V15.9123V15.914V15.9157V15.9174V15.9191V15.9208V15.9225V15.9242V15.9258V15.9275V15.9292V15.9308V15.9325V15.9341V15.9357V15.9374V15.939V15.9406V15.9422V15.9438V15.9454V15.947V15.9486V15.9502V15.9518V15.9533V15.9549V15.9565V15.958V15.9596V15.9611V15.9627V15.9642V15.9657V15.9672V15.9687V15.9702V15.9717V15.9732V15.9747V15.9762V15.9777V15.9792V15.9806V15.9821V15.9835V15.985V15.9864V15.9879V15.9893V15.9907V15.9921V15.9936V15.995V15.9964V15.9978V15.9991V16.0005V16.0019V16.0033V16.0047V16.006V16.0074V16.0087V16.0101V16.0114V16.0127V16.0141V16.0154V16.0167V16.018V16.0193V16.0206V16.0219V16.0232V16.0245V16.0257V16.027V16.0283V16.0295V16.0308V16.032V16.0333V16.0345V16.0357V16.037V16.0382V16.0394V16.0406V16.0418V16.043V16.0442V16.0454V16.0465V16.0477V16.0489V16.05V16.0512V16.0523V16.0535V16.0546V16.0558V16.0569V16.058V16.0591V16.0602V16.0613V16.0624V16.0635V16.0646V16.0657V16.0668V16.0678V16.0689V16.07V16.071V16.0721V16.0731V16.0741V16.0752V16.0762V16.0772V16.0782V16.0792V16.0802V16.0812V16.0822V16.0832V16.0842V16.0852V16.0861V16.0871V16.088V16.089V16.0899V16.0909V16.0918V16.0927V16.0937V16.0946V16.0955V16.0964V16.0973V16.0982V16.0991V16.1V16.1009V16.1017V16.1026V16.1035V16.1043V16.1052V16.106V16.1068V16.1077V16.1085V16.1093V16.1101V16.111V16.1118V16.1126V16.1134V16.1142V16.1149V16.1157V16.1165V16.1173V16.118V16.1188V16.1195V16.1203V16.121V16.1217V16.1225V16.1232V16.1239V16.1246V16.1253V16.126V16.1267V16.1274V16.1281V16.1288V16.1295V16.1301V16.1308V16.1314V16.1321V16.1327V16.1334V16.134V16.1346V16.1353V16.1359V16.1365V16.1371V16.1377V16.1383V16.1389V16.1395V16.1401V16.1406V16.1412V16.1418V16.1423V16.1429V16.1434V16.144V16.1445V16.145V16.1456V16.1461V16.1466V16.1471V16.1476V16.1481C2.21289 16.7476 2.47905 17.195 2.85706 17.4676C3.19689 17.7126 3.58227 17.787 3.85044 17.787H5.62555C6.32287 17.787 6.80838 17.3495 7.08032 16.9541C7.35059 16.5612 7.51669 16.0662 7.51669 15.6402C7.51669 15.6402 7.5167 15.6384 7.51695 15.6348C7.51721 15.6313 7.51767 15.6266 7.51846 15.6209C7.52008 15.6094 7.52278 15.596 7.52675 15.582C7.53515 15.5526 7.54575 15.5327 7.55317 15.5224C7.55864 15.5148 7.56019 15.5149 7.56027 15.5148C7.56151 15.5142 7.56749 15.5112 7.58071 15.5082C7.5942 15.5051 7.61786 15.5013 7.65425 15.5013H7.65841H7.66256H7.6667H7.67084H7.67497H7.6791H7.68322H7.68733H7.69143H7.69553H7.69963H7.70371H7.70779H7.71187H7.71594H7.72H7.72405H7.7281H7.73214H7.73618H7.74021H7.74423H7.74825H7.75226H7.75626H7.76026H7.76425H7.76823H7.77221H7.77618H7.78015H7.78411H7.78806H7.79201H7.79594H7.79988H7.8038H7.80772H7.81164H7.81555H7.81945H7.82334H7.82723H7.83111H7.83499H7.83885H7.84272H7.84657H7.85042H7.85426H7.8581H7.86193H7.86576H7.86957H7.87338H7.87719H7.88099H7.88478H7.88856H7.89234H7.89611H7.89988H7.90364H7.90739H7.91114H7.91488H7.91861H7.92234H7.92606H7.92977H7.93348H7.93718H7.94087H7.94456H7.94824H7.95192H7.95559H7.95925H7.9629H7.96655H7.9702H7.97383H7.97746H7.98109H7.9847H7.98831H7.99192H7.99551H7.99911H8.00269H8.00627H8.00984H8.0134H8.01696H8.02052H8.02406H8.0276H8.03113H8.03466H8.03818H8.04169H8.0452H8.0487H8.05219H8.05568H8.05916H8.06263H8.0661H8.06956H8.07302H8.07646H8.07991H8.08334H8.08677H8.09019H8.09361H8.09701H8.10042H8.10381H8.1072H8.11059H8.11396H8.11733H8.12069H8.12405H8.1274H8.13075H8.13408H8.13741H8.14074H8.14405H8.14737H8.15067H8.15397H8.15726H8.16054H8.16382H8.16709H8.17036H8.17362H8.17687H8.18012H8.18336H8.18659H8.18981H8.19303H8.19625H8.19945H8.20265H8.20585H8.20903H8.21221H8.21539H8.21855H8.22171H8.22487H8.22802H8.23116H8.23429H8.23742H8.24054H8.24365H8.24676H8.24986H8.25296H8.25605H8.25913H8.2622H8.26527H8.26833H8.27139H8.27444H8.27748H8.28052H8.28354H8.28657H8.28958H8.29259H8.29559H8.29859H8.30158H8.30456H8.30754H8.31051H8.31347H8.31643H8.31938H8.32232H8.32526H8.32819H8.33111H8.33403H8.33694H8.33984H8.34274H8.34563H8.34852H8.35139H8.35426H8.35713H8.35999H8.36284H8.36568H8.36852H8.37135H8.37417H8.37699H8.3798H8.38261H8.38541H8.3882H8.39098H8.39376H8.39653H8.3993H8.40205H8.40481H8.40755H8.41029H8.41302H8.41575H8.41846H8.42118H8.42388H8.42658H8.42927H8.43196H8.43464H8.43731H8.43997H8.44263H8.44528H8.44793H8.45057H8.4532H8.45582H8.45844H8.46106H8.46366H8.46626H8.46885H8.47144H8.47402H8.47659H8.47915H8.48171H8.48426H8.48681H8.48935H8.49188H8.49441H8.49693H8.49944H8.50194H8.50444H8.50693H8.50942H8.5119H8.51437H8.51684H8.5193H8.52175H8.52419H8.52663H8.52906H8.53149H8.53391H8.53632H8.53872H8.54112H8.54352H8.5459H8.54828H8.55065H8.55302H8.55537H8.55773H8.56007H8.56241H8.56474H8.56707H8.56938H8.5717H8.574H8.5763H8.57859H8.58087H8.58315H8.58542H8.58769H8.58995H8.5922H8.59444H8.59668H8.59891H8.60114H8.60335H8.60556H8.60777H8.60997H8.61216H8.61434H8.61652H8.61869H8.62085H8.62301H8.62516H8.6273H8.62944H8.63157H8.63369H8.63581H8.63792H8.64002H8.64212H8.64421H8.64629H8.64837H8.65044H8.6525H8.65456H8.6566H8.65865H8.66068H8.66271H8.66473H8.66675H8.66876H8.67076H8.67275H8.67474H8.67672H8.6787H8.68067H8.68263H8.68458H8.68653H8.68847H8.69041H8.69233H8.69426H8.69617H8.69808H8.69998H8.70187H8.70376H8.70564H8.70751H8.70938H8.71124H8.71309H8.71494H8.71678H8.71861H8.72043H8.72225H8.72407H8.72587H8.72767H8.72946H8.73125H8.73303H8.7348H8.73656H8.73832H8.74007H8.74182H8.74355H8.74528H8.74701H8.74872H8.75043H8.75214H8.75383H8.75552H8.75721H8.75888H8.76055H8.76222H8.76387H8.76552H8.76716H8.7688H8.77043H8.77205H8.77366H8.77527H8.77687H8.77847H8.78006H8.78164H8.78321H8.78478H8.78634H8.78789H8.78944H8.79098H8.79251H8.79404H8.79556H8.79707H8.79857H8.80007H8.80157H8.80305H8.80453H8.806H8.80746H8.80892H8.81037H8.81182H8.81325H8.81468H8.81611H8.81752H8.81893H8.82034H8.82173H8.82312H8.8245H8.82588H8.82725H8.82861H8.82997H8.83131H8.83265H8.83399H8.83532H8.83664H8.83795H8.83926H8.84056H8.84185H8.84314H8.84442H8.84569H8.84695H8.84821H8.84946H8.85071H8.85195H8.85318H8.8544H8.85562H8.85683H8.85803H8.85923H8.86042H8.8616H8.86278H8.86395H8.86511H8.86627H8.86741H8.86856H8.86969H8.87082H8.87194H8.87305H8.87416H8.87526H8.87635H8.87744H8.87852H8.87959H8.88066H8.88172H8.88277H8.88381H8.88485H8.88588H8.88691H8.88792H8.88893H8.88994H8.89093H8.89192H8.89291H8.89388H8.89485H8.89581H8.89677H8.89771H8.89865H8.89959H8.90052H8.90144H8.90235H8.90326H8.90416H8.90505H8.90593H8.90681H8.90768H8.90855H8.90941H8.91026H8.9111H8.91194H8.91277H8.91359H8.91441H8.91522H8.91602H8.91681H8.9176H8.91838H8.91916H8.91992H8.92068H8.92144H8.92218C9.14809 15.5013 9.47008 15.4396 9.75707 15.2326C10.0823 14.9982 10.3062 14.6143 10.3062 14.1164C10.3062 14.0444 10.3328 13.9353 10.4008 13.8003C10.9712 13.9975 11.5831 14.1045 12.2188 14.1045C15.2951 14.1045 17.787 11.6072 17.787 8.52907C17.787 5.45093 15.2951 2.95367 12.2188 2.95367C9.14255 2.95367 6.65066 5.45093 6.65066 8.52907C6.65066 8.97014 6.70196 9.39999 6.79911 9.81266L2.58197 13.6913ZM8.15355 10.6049L8.51041 10.2767L8.35762 9.81653C8.22356 9.41282 8.15066 8.98023 8.15066 8.52907C8.15066 6.27723 9.9731 4.45367 12.2188 4.45367C14.4645 4.45367 16.287 6.27723 16.287 8.52907C16.287 10.7809 14.4645 12.6045 12.2188 12.6045C11.5901 12.6045 10.9966 12.4621 10.4669 12.2085L9.9877 11.979L9.61228 12.355C9.45825 12.5092 9.26794 12.746 9.11198 13.0291C8.97268 13.2818 8.83382 13.6204 8.8098 14.0013H8.80892H8.80746H8.806H8.80453H8.80305H8.80157H8.80007H8.79857H8.79707H8.79556H8.79404H8.79251H8.79098H8.78944H8.78789H8.78634H8.78478H8.78321H8.78164H8.78006H8.77847H8.77687H8.77527H8.77366H8.77205H8.77043H8.7688H8.76716H8.76552H8.76387H8.76222H8.76055H8.75888H8.75721H8.75552H8.75383H8.75214H8.75043H8.74872H8.74701H8.74528H8.74355H8.74182H8.74007H8.73832H8.73656H8.7348H8.73303H8.73125H8.72946H8.72767H8.72587H8.72407H8.72225H8.72043H8.71861H8.71678H8.71494H8.71309H8.71124H8.70938H8.70751H8.70564H8.70376H8.70187H8.69998H8.69808H8.69617H8.69426H8.69233H8.69041H8.68847H8.68653H8.68458H8.68263H8.68067H8.6787H8.67672H8.67474H8.67275H8.67076H8.66876H8.66675H8.66473H8.66271H8.66068H8.65865H8.6566H8.65456H8.6525H8.65044H8.64837H8.64629H8.64421H8.64212H8.64002H8.63792H8.63581H8.63369H8.63157H8.62944H8.6273H8.62516H8.62301H8.62085H8.61869H8.61652H8.61434H8.61216H8.60997H8.60777H8.60556H8.60335H8.60114H8.59891H8.59668H8.59444H8.5922H8.58995H8.58769H8.58542H8.58315H8.58087H8.57859H8.5763H8.574H8.5717H8.56938H8.56707H8.56474H8.56241H8.56007H8.55773H8.55537H8.55302H8.55065H8.54828H8.5459H8.54352H8.54112H8.53872H8.53632H8.53391H8.53149H8.52906H8.52663H8.52419H8.52175H8.5193H8.51684H8.51437H8.5119H8.50942H8.50693H8.50444H8.50194H8.49944H8.49693H8.49441H8.49188H8.48935H8.48681H8.48426H8.48171H8.47915H8.47659H8.47402H8.47144H8.46885H8.46626H8.46366H8.46106H8.45844H8.45582H8.4532H8.45057H8.44793H8.44528H8.44263H8.43997H8.43731H8.43464H8.43196H8.42927H8.42658H8.42388H8.42118H8.41846H8.41575H8.41302H8.41029H8.40755H8.40481H8.40205H8.3993H8.39653H8.39376H8.39098H8.3882H8.38541H8.38261H8.3798H8.37699H8.37417H8.37135H8.36852H8.36568H8.36284H8.35999H8.35713H8.35426H8.35139H8.34852H8.34563H8.34274H8.33984H8.33694H8.33403H8.33111H8.32819H8.32526H8.32232H8.31938H8.31643H8.31347H8.31051H8.30754H8.30456H8.30158H8.29859H8.29559H8.29259H8.28958H8.28657H8.28354H8.28052H8.27748H8.27444H8.27139H8.26833H8.26527H8.2622H8.25913H8.25605H8.25296H8.24986H8.24676H8.24365H8.24054H8.23742H8.23429H8.23116H8.22802H8.22487H8.22171H8.21855H8.21539H8.21221H8.20903H8.20585H8.20265H8.19945H8.19625H8.19303H8.18981H8.18659H8.18336H8.18012H8.17687H8.17362H8.17036H8.16709H8.16382H8.16054H8.15726H8.15397H8.15067H8.14737H8.14405H8.14074H8.13741H8.13408H8.13075H8.1274H8.12405H8.12069H8.11733H8.11396H8.11059H8.1072H8.10381H8.10042H8.09701H8.09361H8.09019H8.08677H8.08334H8.07991H8.07646H8.07302H8.06956H8.0661H8.06263H8.05916H8.05568H8.05219H8.0487H8.0452H8.04169H8.03818H8.03466H8.03113H8.0276H8.02406H8.02052H8.01696H8.0134H8.00984H8.00627H8.00269H7.99911H7.99551H7.99192H7.98831H7.9847H7.98109H7.97746H7.97383H7.9702H7.96655H7.9629H7.95925H7.95559H7.95192H7.94824H7.94456H7.94087H7.93718H7.93348H7.92977H7.92606H7.92234H7.91861H7.91488H7.91114H7.90739H7.90364H7.89988H7.89611H7.89234H7.88856H7.88478H7.88099H7.87719H7.87338H7.86957H7.86576H7.86193H7.8581H7.85426H7.85042H7.84657H7.84272H7.83885H7.83499H7.83111H7.82723H7.82334H7.81945H7.81555H7.81164H7.80772H7.8038H7.79988H7.79594H7.79201H7.78806H7.78411H7.78015H7.77618H7.77221H7.76823H7.76425H7.76026H7.75626H7.75226H7.74825H7.74423H7.74021H7.73618H7.73214H7.7281H7.72405H7.72H7.71594H7.71187H7.70779H7.70371H7.69963H7.69553H7.69143H7.68733H7.68322H7.6791H7.67497H7.67084H7.6667H7.66256H7.65841H7.65425C7.05431 14.0013 6.60723 14.2685 6.33524 14.6468C6.09079 14.9869 6.01669 15.3722 6.01669 15.6402C6.01669 15.6694 6.00882 15.7391 5.97662 15.8359C5.94553 15.9293 5.89968 16.0238 5.84446 16.104C5.72334 16.2801 5.63828 16.287 5.62555 16.287H3.85044C3.85059 16.287 3.84885 16.287 3.84535 16.2868C3.84189 16.2865 3.83728 16.2861 3.83169 16.2853C3.82027 16.2837 3.80704 16.281 3.79328 16.2771C3.76415 16.2687 3.74455 16.2582 3.73439 16.2509C3.72762 16.246 3.72697 16.2443 3.72677 16.2437C3.72675 16.2436 3.72673 16.2436 3.72671 16.2436C3.72599 16.2422 3.72294 16.236 3.71984 16.2225C3.71668 16.2087 3.71289 16.1848 3.71289 16.1481V16.1476V16.1471V16.1466V16.1461V16.1456V16.145V16.1445V16.144V16.1434V16.1429V16.1423V16.1418V16.1412V16.1406V16.1401V16.1395V16.1389V16.1383V16.1377V16.1371V16.1365V16.1359V16.1353V16.1346V16.134V16.1334V16.1327V16.1321V16.1314V16.1308V16.1301V16.1295V16.1288V16.1281V16.1274V16.1267V16.126V16.1253V16.1246V16.1239V16.1232V16.1225V16.1217V16.121V16.1203V16.1195V16.1188V16.118V16.1173V16.1165V16.1157V16.1149V16.1142V16.1134V16.1126V16.1118V16.111V16.1101V16.1093V16.1085V16.1077V16.1068V16.106V16.1052V16.1043V16.1035V16.1026V16.1017V16.1009V16.1V16.0991V16.0982V16.0973V16.0964V16.0955V16.0946V16.0937V16.0927V16.0918V16.0909V16.0899V16.089V16.088V16.0871V16.0861V16.0852V16.0842V16.0832V16.0822V16.0812V16.0802V16.0792V16.0782V16.0772V16.0762V16.0752V16.0741V16.0731V16.0721V16.071V16.07V16.0689V16.0678V16.0668V16.0657V16.0646V16.0635V16.0624V16.0613V16.0602V16.0591V16.058V16.0569V16.0558V16.0546V16.0535V16.0523V16.0512V16.05V16.0489V16.0477V16.0465V16.0454V16.0442V16.043V16.0418V16.0406V16.0394V16.0382V16.037V16.0357V16.0345V16.0333V16.032V16.0308V16.0295V16.0283V16.027V16.0257V16.0245V16.0232V16.0219V16.0206V16.0193V16.018V16.0167V16.0154V16.0141V16.0127V16.0114V16.0101V16.0087V16.0074V16.006V16.0047V16.0033V16.0019V16.0005V15.9991V15.9978V15.9964V15.995V15.9936V15.9921V15.9907V15.9893V15.9879V15.9864V15.985V15.9835V15.9821V15.9806V15.9792V15.9777V15.9762V15.9747V15.9732V15.9717V15.9702V15.9687V15.9672V15.9657V15.9642V15.9627V15.9611V15.9596V15.958V15.9565V15.9549V15.9533V15.9518V15.9502V15.9486V15.947V15.9454V15.9438V15.9422V15.9406V15.939V15.9374V15.9357V15.9341V15.9325V15.9308V15.9292V15.9275V15.9258V15.9242V15.9225V15.9208V15.9191V15.9174V15.9157V15.914V15.9123V15.9106V15.9089V15.9071V15.9054V15.9037V15.9019V15.9002V15.8984V15.8966V15.8949V15.8931V15.8913V15.8895V15.8877V15.8859V15.8841V15.8823V15.8805V15.8787V15.8768V15.875V15.8732V15.8713V15.8694V15.8676V15.8657V15.8638V15.862V15.8601V15.8582V15.8563V15.8544V15.8525V15.8506V15.8487V15.8467V15.8448V15.8429V15.8409V15.839V15.837V15.835V15.8331V15.8311V15.8291V15.8271V15.8251V15.8231V15.8211V15.8191V15.8171V15.8151V15.8131V15.811V15.809V15.8069V15.8049V15.8028V15.8008V15.7987V15.7966V15.7945V15.7924V15.7903V15.7882V15.7861V15.784V15.7819V15.7798V15.7777V15.7755V15.7734V15.7712V15.7691V15.7669V15.7647V15.7626V15.7604V15.7582V15.756V15.7538V15.7516V15.7494V15.7472V15.745V15.7427V15.7405V15.7382V15.736V15.7337V15.7315V15.7292V15.7269V15.7247V15.7224V15.7201V15.7178V15.7155V15.7132V15.7109V15.7086V15.7062V15.7039V15.7016V15.6992V15.6969V15.6945V15.6921V15.6898V15.6874V15.685V15.6826V15.6802V15.6778V15.6754V15.673V15.6706V15.6682V15.6657V15.6633V15.6608V15.6584V15.6559V15.6535V15.651V15.6485V15.6461V15.6436V15.6411V15.6386V15.6361V15.6336V15.631V15.6285V15.626V15.6234V15.6209V15.6183V15.6158V15.6132V15.6107V15.6081V15.6055V15.6029V15.6003V15.5977V15.5951V15.5925V15.5899V15.5873V15.5846V15.582V15.5794V15.5767V15.5741V15.5714V15.5687V15.566V15.5634V15.5607V15.558V15.5553V15.5526V15.5499V15.5471V15.5444V15.5417V15.539V15.5362V15.5335V15.5307V15.5279V15.5252V15.5224V15.5196V15.5168V15.514V15.5112V15.5084V15.5056V15.5028V15.5V15.4971V15.4943V15.4915V15.4886V15.4857V15.4829V15.48V15.4771V15.4743V15.4714V15.4685V15.4656V15.4627V15.4597V15.4568V15.4539V15.451V15.448V15.4451V15.4421V15.4392V15.4362V15.4332V15.4303V15.4273V15.4243V15.4213V15.4183V15.4153V15.4122V15.4092V15.4062V15.4032V15.4001V15.3971V15.394V15.391V15.3879V15.3848V15.3817V15.3786V15.3756V15.3725V15.3693V15.3662V15.3631V15.36V15.3569V15.3537V15.3506V15.3474V15.3443V15.3411V15.3379V15.3348V15.3316V15.3284V15.3252V15.322V15.3188V15.3156V15.3123V15.3091V15.3059V15.3026V15.2994V15.2961V15.2929V15.2896V15.2863V15.283V15.2798V15.2765V15.2732V15.2699V15.2665V15.2632V15.2599V15.2566V15.2532V15.2499V15.2465V15.2432V15.2398V15.2364V15.2331V15.2297V15.2263V15.2229V15.2195V15.2161V15.2127V15.2092V15.2058V15.2024V15.1989V15.1955V15.192V15.1885V15.1851V15.1816V15.1781V15.1746V15.1711V15.1676V15.1641V15.1606V15.1571V15.1536V15.15V15.1465V15.1429V15.1394V15.1358V15.1322C3.71289 14.9074 3.72589 14.7571 3.73912 14.665L8.15355 10.6049ZM12.8528 9.0251C13.4781 9.0251 13.9832 8.51769 13.9832 7.89415C13.9832 7.27061 13.4781 6.7632 12.8528 6.7632C12.2274 6.7632 11.7224 7.27061 11.7224 7.89415C11.7224 8.51769 12.2274 9.0251 12.8528 9.0251Z" fill="#868686" stroke="#868686" stroke-width="0"/>
</g>
<defs>
<clipPath id="clip0_1010_299">
<rect width="20" height="20" fill="white"/>
</clipPath>
</defs>
</svg>
