<svg width="25" height="25" viewBox="0 0 25 25" fill="none" xmlns="http://www.w3.org/2000/svg">
<rect width="25" height="25" rx="5" fill="url(#paint0_linear_786_284)"/>
<path d="M19.4814 16.401C19.4814 17.55 18.5887 18.4815 17.4875 18.4815C16.3864 18.4815 15.4937 17.55 15.4937 16.401C15.4937 15.2519 16.3864 14.3205 17.4875 14.3205C18.5887 14.3205 19.4814 15.2519 19.4814 16.401Z" fill="white"/>
<path d="M17.8394 11.7504V8.44606C17.8394 8.03812 17.6048 7.22223 16.6665 7.22223H7.98754C7.04927 7.22223 6.8147 8.03812 6.8147 8.44606V15.7891C6.8147 16.197 7.04927 17.0129 7.98754 17.0129H13.0307M19.4814 16.401C19.4814 17.55 18.5887 18.4815 17.4875 18.4815C16.3864 18.4815 15.4937 17.55 15.4937 16.401C15.4937 15.2519 16.3864 14.3205 17.4875 14.3205C18.5887 14.3205 19.4814 15.2519 19.4814 16.401Z" stroke="white" stroke-linecap="round"/>
<defs>
<linearGradient id="paint0_linear_786_284" x1="12.5" y1="0" x2="12.5" y2="25" gradientUnits="userSpaceOnUse">
<stop stop-color="#FF6B88"/>
<stop offset="1" stop-color="#FF2C55"/>
</linearGradient>
</defs>
</svg>
