<svg width="25" height="25" viewBox="0 0 25 25" fill="none" xmlns="http://www.w3.org/2000/svg">
<rect width="25" height="25" rx="5" fill="url(#paint0_linear_966_290)"/>
<path d="M9.45059 14.3765C9.72425 14.9238 10.7173 16.0185 12.5 16.0185C14.2827 16.0185 15.2757 14.9238 15.5494 14.3765M19.8889 12.5C19.8889 16.5807 16.5807 19.8889 12.5 19.8889C8.4192 19.8889 5.11108 16.5807 5.11108 12.5C5.11108 8.4192 8.4192 5.11108 12.5 5.11108C16.5807 5.11108 19.8889 8.4192 19.8889 12.5ZM15.3148 11.2098C15.3148 11.5337 15.1573 11.7963 14.9629 11.7963C14.7686 11.7963 14.6111 11.5337 14.6111 11.2098C14.6111 10.886 14.7686 10.6234 14.9629 10.6234C15.1573 10.6234 15.3148 10.886 15.3148 11.2098ZM10.3889 11.2098C10.3889 11.5337 10.2313 11.7963 10.037 11.7963C9.84269 11.7963 9.68516 11.5337 9.68516 11.2098C9.68516 10.886 9.84269 10.6234 10.037 10.6234C10.2313 10.6234 10.3889 10.886 10.3889 11.2098Z" stroke="white" stroke-linecap="round"/>
<defs>
<linearGradient id="paint0_linear_966_290" x1="12.5" y1="0" x2="12.5" y2="25" gradientUnits="userSpaceOnUse">
<stop stop-color="#50B3FF"/>
<stop offset="1" stop-color="#32A5FF"/>
</linearGradient>
</defs>
</svg>
