<svg width="25" height="25" viewBox="0 0 25 25" fill="none" xmlns="http://www.w3.org/2000/svg">
<rect width="25" height="25" rx="5" fill="url(#paint0_linear_786_308)"/>
<path d="M6.51855 7.226C6.51855 6.83527 6.83687 6.51852 7.22952 6.51852H10.0734C10.4661 6.51852 10.7844 6.83527 10.7844 7.226V10.0559C10.7844 10.4466 10.4661 10.7634 10.0734 10.7634H7.22952C6.83687 10.7634 6.51855 10.4466 6.51855 10.0559V7.226Z" stroke="white"/>
<path d="M6.51855 14.2404C6.51855 13.8497 6.83687 13.5329 7.22952 13.5329H10.0734C10.4661 13.5329 10.7844 13.8497 10.7844 14.2404V17.0703C10.7844 17.461 10.4661 17.7778 10.0734 17.7778H7.22952C6.83687 17.7778 6.51855 17.461 6.51855 17.0703V14.2404Z" stroke="white"/>
<path d="M13.512 7.226C13.512 6.83527 13.8303 6.51852 14.223 6.51852H17.0668C17.4595 6.51852 17.7778 6.83527 17.7778 7.226V10.0559C17.7778 10.4466 17.4595 10.7634 17.0668 10.7634H14.223C13.8303 10.7634 13.512 10.4466 13.512 10.0559V7.226Z" stroke="white"/>
<path d="M13.512 14.2404C13.512 13.8497 13.8303 13.5329 14.223 13.5329H17.0668C17.4595 13.5329 17.7778 13.8497 17.7778 14.2404V17.0703C17.7778 17.461 17.4595 17.7778 17.0668 17.7778H14.223C13.8303 17.7778 13.512 17.461 13.512 17.0703V14.2404Z" stroke="white"/>
<defs>
<linearGradient id="paint0_linear_786_308" x1="12.5" y1="0" x2="12.5" y2="25" gradientUnits="userSpaceOnUse">
<stop stop-color="#E795FC"/>
<stop offset="1" stop-color="#D47CEA"/>
</linearGradient>
</defs>
</svg>
