<svg width="25" height="25" viewBox="0 0 25 25" fill="none" xmlns="http://www.w3.org/2000/svg">
<rect width="25" height="25" rx="5" fill="url(#paint0_linear_786_344)"/>
<g clip-path="url(#clip0_786_344)">
<path d="M18.2844 15.7794L18.9167 14.2554L17.2258 13.2063C17.2965 12.7322 17.2955 12.2586 17.2268 11.7965L18.9089 10.7285L18.2779 9.20419L16.3468 9.6564C16.0691 9.27813 15.7337 8.93824 15.3459 8.65099L15.7788 6.71491L14.2548 6.08262L13.2147 7.75968C12.7379 7.68624 12.259 7.6857 11.7945 7.75477L10.7511 6.07986L9.22658 6.70986L9.6509 8.63459C9.27049 8.91426 8.92963 9.25127 8.64001 9.64169L6.72514 9.19673L6.09285 10.7208L7.75045 11.7804C7.67825 12.2597 7.68044 12.739 7.75163 13.207L6.08067 14.2472L6.71043 15.7723L8.63837 15.3457C8.91846 15.7243 9.25537 16.0638 9.64393 16.3501L9.19645 18.275L10.7205 18.9073L11.7896 17.2354C12.2655 17.3049 12.7434 17.3021 13.206 17.2306L14.2722 18.9101L15.7969 18.2789L15.3416 16.3426C15.7174 16.0649 16.0538 15.7306 16.3384 15.3453L18.2844 15.7794Z" stroke="white" stroke-miterlimit="10" stroke-linecap="round" stroke-linejoin="round"/>
<path d="M11.6952 14.4397C12.7665 14.8841 13.9952 14.376 14.4396 13.3047C14.8841 12.2335 14.3759 11.0047 13.3047 10.5603C12.2334 10.1159 11.0047 10.624 10.5603 11.6953C10.1158 12.7665 10.6239 13.9952 11.6952 14.4397Z" stroke="white" stroke-miterlimit="10" stroke-linecap="round" stroke-linejoin="round"/>
</g>
<defs>
<linearGradient id="paint0_linear_786_344" x1="12.5" y1="0" x2="12.5" y2="25" gradientUnits="userSpaceOnUse">
<stop stop-color="#4EB3FF"/>
<stop offset="1" stop-color="#39A9FF"/>
</linearGradient>
<clipPath id="clip0_786_344">
<rect width="15" height="15" fill="white" transform="translate(8.44653 2.69848) rotate(22.5325)"/>
</clipPath>
</defs>
</svg>
