<svg width="20" height="20" viewBox="0 0 20 20" fill="none" xmlns="http://www.w3.org/2000/svg">
<g clip-path="url(#clip0_1010_301)">
<path d="M6.79007 11.9753C7.07814 12.5514 8.1234 13.7037 9.99995 13.7037C11.8765 13.7037 12.9218 12.5514 13.2098 11.9753M17.7777 10C17.7777 14.2956 14.2955 17.7778 9.99995 17.7778C5.7044 17.7778 2.22217 14.2956 2.22217 10C2.22217 5.70446 5.7044 2.22223 9.99995 2.22223C14.2955 2.22223 17.7777 5.70446 17.7777 10ZM12.9629 8.64198C12.9629 8.9829 12.7971 9.25927 12.5925 9.25927C12.388 9.25927 12.2222 8.9829 12.2222 8.64198C12.2222 8.30107 12.388 8.0247 12.5925 8.0247C12.7971 8.0247 12.9629 8.30107 12.9629 8.64198ZM7.77772 8.64198C7.77772 8.9829 7.6119 9.25927 7.40735 9.25927C7.2028 9.25927 7.03698 8.9829 7.03698 8.64198C7.03698 8.30107 7.2028 8.0247 7.40735 8.0247C7.6119 8.0247 7.77772 8.30107 7.77772 8.64198Z" stroke="#868686" stroke-width="1.5" stroke-linecap="round"/>
</g>
<defs>
<clipPath id="clip0_1010_301">
<rect width="20" height="20" fill="white"/>
</clipPath>
</defs>
</svg>
