<svg width="25" height="25" viewBox="0 0 25 25" fill="none" xmlns="http://www.w3.org/2000/svg">
<rect width="25" height="25" rx="5" fill="url(#paint0_linear_786_302)"/>
<path d="M4.40747 18.4815C4.40747 17.3679 4.87661 15.2645 7.45685 15.2645H11.4445C13.6729 15.2645 14.4939 17.3679 14.4939 18.4815M20.5927 18.4815C20.5927 17.3679 19.7717 15.2645 17.5433 15.2645H15.9013M18.3643 10.8103C18.3643 11.972 17.4716 12.9137 16.3704 12.9137C15.2693 12.9137 14.3766 11.972 14.3766 10.8103C14.3766 9.64867 15.2693 8.70696 16.3704 8.70696C17.4716 8.70696 18.3643 9.64867 18.3643 10.8103ZM11.7964 9.94424C11.7964 11.4476 10.6411 12.6663 9.21611 12.6663C7.79108 12.6663 6.63587 11.4476 6.63587 9.94424C6.63587 8.44091 7.79108 7.22222 9.21611 7.22222C10.6411 7.22222 11.7964 8.44091 11.7964 9.94424Z" stroke="white" stroke-linecap="round"/>
<defs>
<linearGradient id="paint0_linear_786_302" x1="12.5" y1="0" x2="12.5" y2="25" gradientUnits="userSpaceOnUse">
<stop stop-color="#76D5FF"/>
<stop offset="1" stop-color="#37A9DC"/>
</linearGradient>
</defs>
</svg>
