<svg width="25" height="25" viewBox="0 0 25 25" fill="none" xmlns="http://www.w3.org/2000/svg">
<rect width="25" height="25" rx="5" fill="url(#paint0_linear_786_311)"/>
<path d="M8.65739 14.256C8.46127 14.4504 8.45988 14.767 8.65428 14.9631C8.84868 15.1592 9.16526 15.1606 9.36138 14.9662L8.65739 14.256ZM11.9674 11.679L12.3194 11.3239C12.1245 11.1307 11.8103 11.1307 11.6154 11.3239L11.9674 11.679ZM14.4522 14.142L14.1002 14.4971C14.1953 14.5914 14.3243 14.6436 14.4583 14.6419C14.5922 14.6403 14.7199 14.585 14.8127 14.4884L14.4522 14.142ZM19.1851 9.21605H19.6851C19.6851 8.93991 19.4612 8.71605 19.1851 8.71605V9.21605ZM16.1087 8.71605C15.8326 8.71605 15.6087 8.93991 15.6087 9.21605C15.6087 9.49219 15.8326 9.71605 16.1087 9.71605V8.71605ZM18.6851 12.3827C18.6851 12.6589 18.9089 12.8827 19.1851 12.8827C19.4612 12.8827 19.6851 12.6589 19.6851 12.3827H18.6851ZM16.2135 7.4429C16.4001 7.64641 16.7164 7.66008 16.9199 7.47343C17.1235 7.28678 17.1371 6.97049 16.9505 6.76698L16.2135 7.4429ZM19.291 15.1567C19.398 14.9022 19.2784 14.609 19.0239 14.502C18.7693 14.395 18.4762 14.5146 18.3692 14.7692L19.291 15.1567ZM9.36138 14.9662L12.3194 12.0341L11.6154 11.3239L8.65739 14.256L9.36138 14.9662ZM11.6154 12.0341L14.1002 14.4971L14.8042 13.7869L12.3194 11.3239L11.6154 12.0341ZM14.8127 14.4884L19.5456 9.56247L18.8245 8.86963L14.0916 13.7956L14.8127 14.4884ZM19.1851 8.71605H16.1087V9.71605H19.1851V8.71605ZM18.6851 9.21605V12.3827H19.6851V9.21605H18.6851ZM12.559 18.6852C9.10622 18.6852 6.3147 15.9118 6.3147 12.5H5.3147C5.3147 16.4724 8.56226 19.6852 12.559 19.6852V18.6852ZM6.3147 12.5C6.3147 9.08816 9.10622 6.31482 12.559 6.31482V5.31482C8.56226 5.31482 5.3147 8.52759 5.3147 12.5H6.3147ZM12.559 6.31482C12.9966 6.31482 13.7242 6.37548 14.4485 6.55773C15.1876 6.7437 15.8402 7.03593 16.2135 7.4429L16.9505 6.76698C16.3771 6.14185 15.4916 5.78902 14.6925 5.58795C13.8786 5.38316 13.0681 5.31482 12.559 5.31482V6.31482ZM12.559 19.6852C14.1715 19.6852 17.7641 18.7893 19.291 15.1567L18.3692 14.7692C17.0564 17.8922 13.9441 18.6852 12.559 18.6852V19.6852Z" fill="white"/>
<defs>
<linearGradient id="paint0_linear_786_311" x1="12.5" y1="0" x2="12.5" y2="25" gradientUnits="userSpaceOnUse">
<stop stop-color="#61F97A"/>
<stop offset="1" stop-color="#55E46C"/>
</linearGradient>
</defs>
</svg>
