<svg width="16" height="11" viewBox="0 0 16 11" fill="none" xmlns="http://www.w3.org/2000/svg">
<g clip-path="url(#clip0_1075_333)">
<mask id="mask0_1075_333" style="mask-type:luminance" maskUnits="userSpaceOnUse" x="0" y="0" width="16" height="11">
<path d="M16 0H0V11H16V0Z" fill="white"/>
</mask>
<g mask="url(#mask0_1075_333)">
<path d="M7.34126 10.712C7.41466 10.8008 7.51287 10.8734 7.62744 10.9236C7.742 10.9738 7.86949 11 7.99892 11C8.12834 11 8.25582 10.9738 8.37039 10.9236C8.48496 10.8734 8.58316 10.8008 8.65657 10.712L15.8572 2.04593C15.9404 1.94597 15.9893 1.8289 15.9985 1.70742C16.0076 1.58595 15.9765 1.46472 15.9087 1.3569C15.8409 1.24909 15.739 1.15882 15.614 1.0959C15.4889 1.03298 15.3455 0.99981 15.1995 1H0.798352C0.652615 1.0005 0.5098 1.0341 0.385264 1.09717C0.260728 1.16024 0.159184 1.25041 0.0915511 1.35797C0.0239188 1.46553 -0.00724309 1.58642 0.00141675 1.70764C0.0100766 1.82886 0.0582306 1.94581 0.1407 2.04593L7.34126 10.712Z" fill="black"/>
<path d="M0.444336 0.299988H15.5554" stroke="black" stroke-linecap="round"/>
</g>
</g>
<defs>
<clipPath id="clip0_1075_333">
<rect width="16" height="11" fill="white"/>
</clipPath>
</defs>
</svg>
