<svg width="22" height="17" viewBox="0 0 22 17" fill="none" xmlns="http://www.w3.org/2000/svg">
<g clip-path="url(#clip0_1068_292)">
<path d="M21.9061 0.625107C21.7289 0.219153 21.4224 0.016149 20.985 0.0159302H1.01449C0.577686 0.0159302 0.270728 0.219153 0.0938873 0.625107C-0.0828441 1.05185 -0.0101077 1.4165 0.312424 1.71835L8.0045 9.41802L8 13.0132C8 13.2842 8.09886 13.5182 8.29641 13.7163L12.2949 16.719C12.4822 16.9167 12.7162 17.0159 12.9971 17.0159C13.1218 17.0159 13.2518 16.9897 13.3871 16.9377C13.7929 16.7606 13.9958 16.4535 13.9958 16.0162V9.41808L21.6876 1.71841C22.0103 1.41656 22.0828 1.05201 21.9061 0.625107Z" fill="black"/>
</g>
<defs>
<clipPath id="clip0_1068_292">
<rect width="22" height="17" fill="white"/>
</clipPath>
</defs>
</svg>
